/* XPM */
static char *_602b4c0d43747209904dfa048bbf336JQVGv6dmXPBBs69V[] = {
/* columns rows colors chars-per-pixel */
"64 64 149 2 ",
"   c #0D7F00",
".  c #0D8300",
"X  c #0E8900",
"o  c #148500",
"O  c #198702",
"+  c #158C00",
"@  c #1B8C03",
"#  c #1D8708",
"$  c #1F8B08",
"%  c #1D9103",
"&  c #208F07",
"*  c #228D0A",
"=  c #209307",
"-  c #24930B",
";  c #28950F",
":  c #259A0E",
">  c #289C0F",
",  c #2B9513",
"<  c #279A10",
"1  c #2C9C14",
"2  c #2E9318",
"3  c #2F9D18",
"4  c #309A17",
"5  c #32961D",
"6  c #339B1C",
"7  c #25A505",
"8  c #28A707",
"9  c #29A807",
"0  c #2BA60B",
"q  c #2DA90D",
"w  c #30AA0F",
"e  c #2FA413",
"r  c #2FA810",
"t  c #30A710",
"y  c #33AA13",
"u  c #38AE17",
"i  c #33A11B",
"p  c #39A51E",
"a  c #37AC19",
"s  c #39AD1C",
"d  c #3BB01B",
"f  c #359720",
"g  c #379A21",
"h  c #399D23",
"j  c #3D9F28",
"k  c #37A320",
"l  c #3BA323",
"z  c #3EAC23",
"x  c #3FA329",
"c  c #3FA928",
"v  c #3FB023",
"b  c #41A526",
"n  c #41AC26",
"m  c #42A52B",
"M  c #48A72E",
"N  c #44AB2B",
"B  c #4AAB2E",
"V  c #42B125",
"C  c #44BE26",
"Z  c #46B22A",
"A  c #4AB52E",
"S  c #46BE29",
"D  c #4ABC2D",
"F  c #50B92F",
"G  c #46A431",
"H  c #49A634",
"J  c #47AB30",
"K  c #4BAC33",
"L  c #4EAC38",
"P  c #50AF33",
"I  c #51AE3A",
"U  c #4CB333",
"Y  c #4EBA32",
"T  c #4FB039",
"R  c #52B536",
"E  c #53BB34",
"W  c #58B937",
"Q  c #54B33B",
"!  c #52B538",
"~  c #56B43B",
"^  c #54B13E",
"/  c #58B63C",
"(  c #53BE38",
")  c #54BC3A",
"_  c #56B83C",
"`  c #56B83E",
"'  c #5ABE39",
"]  c #5BBA3F",
"[  c #5BBC3C",
"{  c #61BE3E",
"}  c #45C126",
"|  c #47C128",
" . c #48C02B",
".. c #48C32A",
"X. c #4BC32D",
"o. c #4CC32E",
"O. c #4DC130",
"+. c #4FC531",
"@. c #51C532",
"#. c #53C137",
"$. c #51C434",
"%. c #5EC335",
"&. c #54C837",
"*. c #54C238",
"=. c #57C23C",
"-. c #58C23C",
";. c #5CC33D",
":. c #61C536",
">. c #63C837",
",. c #64C63C",
"<. c #66C93A",
"1. c #68CA3D",
"2. c #69CA3D",
"3. c #69CA3E",
"4. c #56B240",
"5. c #5AB641",
"6. c #5DBC42",
"7. c #60BE43",
"8. c #63BE44",
"9. c #63BD48",
"0. c #5DC643",
"q. c #5EC843",
"w. c #64C442",
"e. c #6AC646",
"r. c #64C944",
"t. c #65C947",
"y. c #6BCB41",
"u. c #6BC942",
"i. c #6CCB40",
"p. c #6DCC42",
"a. c #6BC847",
"s. c #6DCB44",
"d. c #6FCC45",
"f. c #64C349",
"g. c #6AC44B",
"h. c #67CB48",
"j. c #68CA48",
"k. c #6DCB49",
"l. c #69CC49",
"z. c #70CD45",
"x. c #71CD47",
"c. c #72CF47",
"v. c #72CD4C",
"b. c #74D048",
"n. c #77D04E",
"m. c #6CCC50",
"M. c #74CC51",
"N. c #78CF51",
"B. c #79D053",
/* pixels */
"t q z = % z q q % + N u.u.E 0 t t 0 E 3.u.E 0 r $ O 5 = % z q q % + 4 = % z q q $ O 5 * @ U  .S z z K * @ U  .S $ o 5 * $ l q r ",
"0 8 p + + p 9 0 + X b 3.3.E 7 q q 7 E 3.i.E 7 q O o 2 + + p 8 0 + X , + + p 9 0 O o 2 @ O A } C z s B O O A } C O o 2 @ O l 9 q ",
"A A _ N N ! V V p 4 ~ N.B.7.p z z p _ e.a.[ p z h 4 H N N _ A A N b Q N N ! V V c l H h h _ #.( U K ^ h h _ *.( g 5 G 6 5 H z z ",
"O. .t.s.x.' q a a r E u.d.K + = % + l a a l @ * a q E d.s.j.| O.3.3.B.i.x.' q a o.o.-.a s Z t y 3 , b s s Z q y 3 , j ; * 6 % % ",
"+.X.h.d.x.' q a t q E x.b.U + = = % l s s l o @ y q E x.x.l.X.@.u.3.B.p.x.' q a X.X.=.s s Z q t 3 , b s a Z t a , , j $ * 5 + % ",
"m c ^ ~ ~ 6.A U ( Y f./ [ I 6 h 5 2 G A Z 6.W W m l Q ~ ~ ^ c m ~ W 9./ [ ^ l m ) ( 6.l l 6.,.;.b l I Z Z R V Z K N 5.[ [ ~ p z ",
"o o 2 ; - N s z S } ( 1 1 l - ; O o 6 t q ,.3.>.- $ h ; ; 5 o o < > x 1 1 l & ; p s B + O W 3.>.e > m t t V 7 q z a ] 3.p.E 7 q ",
"@ O g 4 4 K s z S | ( i i b - ; $ o 6 a t ;.:.%.3 ; b 3 4 g O $ 1 1 m i i b - < z z B % + W >.%.i 1 m a a Z q t z p [ ,.,.E 0 r ",
"% + m ,.3.B + = S | *.y a V q r % O c X.o.N O - %.:.a.D O.m O % r q Z a a V q q $ O 5 = % z w t t q N i 3 ] :.%.n z K * ; 6 % % ",
"+ X b 3.p.B X % C } #.t t V 7 0 % + l X.+.c   O :.>.k.X.+.n X % 0 7 z t t V 0 0 o o 2 % + p 7 0 q 9 n i 1 w.3.>.z s B o O , + + ",
"l 6 ^ e.a.~ , 6 ( #.6.n n [ E U 4 2 K =.-.Q 4 h ] { g.) ) T 3 6 E E ] Z Z R V V c l H l l ! D A z z L m x 8.w.7.U B ^ M M H 4 6 ",
"Z n R a a l + = t t n - % [ p.,.- + l a a Z t y % + 6 4 4 b , 4 <.3.a.a s Z t a X.X.=.s a ( o.D * O 6 - = h , , = + N d.x.~ ; 3 ",
"Z V R a s l + % r q z - % [ p.,.= + l s s Z t y % + 6 2 2 b , 4 ,.3.e.a a Z t a o.o.-.s s ( X.S * O 5 - % h , 2 % + N x.x.~ ; 3 ",
"N m ^ Z Z U p z ;.,.7.6 5 6.t.w.z p U Z Z U c b N m _ ) ) L 4 h ] ] f.U R Q l b m c L l p f.l.e.h 6 L U Y I h x U A 6.' ' I 5 g ",
"- $ l t t V 8 w >.3.{ O O Z } C q 9 V t t c & - z s ) X.+.z X % p a U z V b & - o o 2 % O W 3.:.; $ N o.o.B $ ; S | #.q q 6 o O ",
", - b a y Z q t %.:.] * * U | S t 0 V a a b ; , z p ) D O.N + = z p ! Z Z N - ; $ O 5 = + W >.%., - N O.O.K - < S S ( t a l O $ ",
"t q n 3 , K z z = + N ,.,.E 0 t % + i a a m 1 1 $ O l a t ;.:.%.- o m <.u.B o $ q q z * $ z w t , - K <.u.B O % z z K * * l 1 1 ",
"0 7 z , ; J s s + X b p.p.E 7 q + X 4 t q m < 1 O o 6 y q ,.3.:.@ . b 3.p.B . O 0 9 z O O p 9 q - $ B 3.x.B . + p s B O O h 1 1 ",
"E F [ b b ^ K K c i ^ e.e.[ p z l i L U A ^ x b g 5 H N z 7.w.7.6 , L e.a.~ , 6 V V U h h K z z b l ^ 8.f.5.c N K U ^ h h L x m ",
"3.3.e.a s m , 3 N V U 2 4 g O * V V _ Z A H ; 3 i i m * * h , , = % l a a l + = y t Z s d l O * a y n * $ [ p.,.4 - m k k m , 3 ",
"u.i.e.a a b , 3 N V U 2 4 g O * n V _ Z A J ; 2 4 1 b * * j , , % + l s d l + = a y Z y a h o @ r q z * # [ p.,.4 , m k k m ; , ",
"E E f.( *._ l m A Z _ L L L 6 h A Z _ H H 4.B K U U 4.x x L x b l l H l l K p z l 6 Q w.w.g.W W ,.,.f.U U 6.E E m z Q Z B ^ B K ",
"0 7 Z X.o.D 7 q 0 7 Z V V m = - 0 9 z ; ; B s z z s U 3 i b > 1 1 1 l O O p 9 q O . b p.3.n.>.3.>.>.k.X.+.D 7 0 q 8 V t w U s z ",
"t q A X.o.Y q t t 0 Z n n N - , r 0 n 3 3 K z z z s U i i N 1 e 1 1 x ; * z q q $ o m <.,.v.%.:.:.%.a.S D D 0 t t q V y t U z z ",
"e 1 m a y ,.,.%.t 0 z * * l q q $ O c o.D ;.C S y 0 E ,.3.E 0 t t 0 E ,.,.E 0 t q 0 V a s l % % & @ 6 = = 4 % % q q z = % B z z ",
"1 1 m t q ;.>.:.q 8 z O O p 9 0 o . l o.X.;.C } q 7 A 3.p.E 7 q 0 7 A 3.p.E 7 0 q 8 V r t i + + o o 2 + + , X + 0 8 p + + m z z ",
"x l L N N g.v.v.Z n L g g L V V m b ^ =.*.f.( *.E A f.e.e.6.z Z E A f.e.e.f.Z A V V R Z A H 3 4 6 5 G l l L n N A A ! l l I B K ",
"* @ g 4 2 7.3.,.p e M 4 4 N t a <.3.e.a a Z q a ,.u.e.a a Z t a ,.3.e.a a ( o.X.a t Z s s l % = 3 , b s a w.3.3.O.X.=.s d l O * ",
"$ O g 5 , 7.p.,.i i M 4 5 N y s 3.p.a.a s Z t a 3.3.e.y a Z w a 3.p.s.a a *.o.o.a t Z y a l O @ , , b s y w.p.u.@.o.-.y a l O * ",
"l p Q ) ! g.t.w.N n Q N N H 6 l B B ^ B B Q m N ~ R 9.w.w.6.z N B B ^ B B _ B B l 6 Q w.w.g.E W b l I Z Z ~ B B m c / w.w.^ 5 h ",
"q 8 D X.X.=.C C 0 7 V t y 6 o o o . 5 i 3 b > 1 1 = U 3.p.~ : 1 o . 5 i i h $ - O . b p.3.v.>.>.e > m t t i X + o   b p.p.R $ - ",
"t 0 A O.o.;.S S y q Z t a p o $ $ O h i i m 1 1 1 < R <.3.~ 1 i $ O h i i b - , $ o m <.>.v.:.%.i 1 B a a l + % $ O m ,.<.R - < ",
"t 0 E 3.3.t.C  .:.:.w.t a l + % q q z = = h - , $ O h s a ,.:.%.t q z = % U S C % + 4 - = n w y S C ;.D O.m + % q q z = = B z z ",
"0 7 A 3.3.t.C  .>.>.w.q y i + % 0 8 p + % 6 $ - O o 4 q 0 ;.3.:.q 7 p % + A  .C % + 3 + + p 8 q C C ;.X.+.n X % 0 9 z + + m s z ",
"E A f.e.e.f.U E { { 8.n N N 2 5 U E ~ 6 5 I K H h 4 L E E g.w.w.E F _ 6 5 ~ Y U 5 2 m l l U V Z =.*.f.E ( K 2 4 V V U c l ^ K K ",
"3.3.e.y a h O $ @ O 5 * * f @ ; ,.3.8.* * [ p.<.u q E s.x.' 0 a ,.3.8.* * 5 O $ * @ h s s Z t a n n K - = 6 % = y t A Z A H ; 2 ",
"3.3.a.a d l O * * @ 5 * * 5 O * ,.p.8.* $ [ p.3.u q E d.x.' q s 3.p.8.* * 5 O @ * O h s s Z q t Z Z U % % 5 + % y t A Z A H , 2 ",
"6.] 9.b m L p l 5 2 H U U Q p z E E 6.c c [ E E m l ^ f.f./ l m E E 6.c c Q U U 5 2 m l l 6.,.;.B b 5.[ ] ~ p z V V ! H H Q z n ",
"p a J , , z 9 q O o l o.+.D 7 q 0 7 v t t z 7 0 ; & x z z b $ ; 0 7 v y w (  .C O o 2 % O W 3.:.; @ B p.p.E 7 q q 8 z ; ; z 9 0 ",
"z z U 3 3 n 0 q $ o l D D Y q t t q V a y Z w t , - m Z Z N - < r q V a t Y C C - @ 6 = % W >.%., - H ,.,.E 0 t r q n 2 2 m w t ",
"z z U t a p + % % + 4 = % W >.%.= + i a t ;.>.%.= + l Z Z A 0 q % + i a a l + = %.:.w.t t (  .S & O 6 - = B z z , - l 3 , [ >.:.",
"p a U t y i + + + + 3 + O W 3.:.% + 4 t 0 ,.3.:.% + i z z Z 9 q % + i t y i X % :.>.w.q q Y } C O . 2 + + m z z - - h , ; [ >.>.",
"] ] 7.n n K 4 i 4 3 m l i 7.a.e.6 3 H E E g.w.w.6 , K 6.6._ p z 4 3 M n n K 4 l e.e.g.A A 0.=.=.m b L l l Q U U h g H m x 7.w.w.",
"3.3.w.- - n y y = + l s a U z z = + N d.x.' 0 t = + N i.x.U + = % % 6 = - n t a n z ! Z Z _ z Z 3.3.a.a s Z t y * O h k k B q y ",
"p.p.w.$ = z t t % + l s a U n n = + N x.x.' q a = + N x.x.K O % % % 6 - - z y a V n _ Z Z _ V Z 3.i.e.y a Z q t * O h k k B q t ",
"B B / U U _ V V z p U m m 5.! ! h 6 L ' ' [ V V z p ! ' ' 6.A U 5 2 M n z L c b ! R 6.U U ^ b N E E f.w.w.f.Y ( h 6 H Z B 6.( ( ",
"o   l +.+.D 7 q q 9 z , ; N s p - - l q q V 0 q q 0 V q 0 E  .C O o 6 y y c & - p p U q t c $ - 0 7 A u.3.t.C C - = l t q ( } | ",
"$ o c X.D A 0 r t q N 3 , K v z < - b s s Z 0 r t q Z a t ( C C $ o 6 y y b ; < z z U t y b - < t 0 E 3.3.t.C S 3 - b a a ( C S ",
"@ O 5 - - 6 O * %.:.w.y t ,.,.%.t 8 E ,.3.B o - %.>.] $ * z q t $ O 5 * * c q t %.>.{ % = z q q $ o c @.O.;.C  .:.%.v.,.3.E 0 t ",
"O o 2 O O 2 o @ :.>.w.q 0 ,.>.:.w 7 E 3.p.B . $ :.3.7.O O p 9 0 o o 2 O O p 7 q :.>.{ + + p 9 0 O o l X.S ;.C  .>.>.v.3.p.E 7 q ",
"5 2 G b b G 2 6 w.w.g.E E g.w.w.n p _ e.e.I , 6 w.u.7.5 6 K V V m b I b x / Y E w.w.7.5 6 K z z h 4 Q h.t.h.( *.f.w.M.e.a.6.z V ",
"= + c $.$.B + = t q E d.x.' q y * O g 3 3 h % = t q n = - n t a <.3.v.#.@.k.3.<.a q n - - 6 @ * a q E i.d.' q a i 1 N a a Z t a ",
"= + c $.&.N + = a y E d.x.' 0 t * O g 4 4 h + % a y n = - z t a 3.3.v.O.O.a.3.,.a t n - - 5 O @ a r E x.x.' q a i i B s s Z q t ",
"5 2 G U U L l l l 6 I [ / g.,.;.x h L M M L l l l 6 G 6 5 K V Z E E e.q.q.m.t.w.Z V U 6 5 T U U l 6 L ' ' [ n V b l L l l Q U U ",
"O o 5 ; ; x 1 1 o o 5 1 < ] 3.>.e > m i i b 1 1 o o 2 @ O l 9 0 0 7 Z X. .=.C C q 0 z + + A  .C O o 4 q q V 0 q - = g O O m s z ",
"$ O g 4 3 b 1 1 * O h i 4 ] >.%.i 1 N i i m 1 1 * @ 6 * * l q r t q A O.O.;.C S t 0 z = = U | C $ o 6 a y V 0 q , - h * * N z z ",
"r 0 A D o.Y 0 t %.:.w.y y Z q a %.:.w.y a Z 0 t %.:.w.t y b ; , e 1 R 3.u.R - < $ o m ,.,.E 9 t $ O 5 = = 5 O $ r q V y t b - , ",
"q 7 Z X.o.D 7 q :.>.w.q t z 7 q :.>.w.q t n 7 q >.3.w.q y c - - 1 > U <.3.P $ - O . b p.p.E 7 0 o o 2 + % 2 o O 0 7 V t y l & - ",
"V n _ =.=.f.A E w.w.g.Z Z ] Y E w.w.g.U Y ] Z A { { 8.Z Z L g h m z 6.N.B.8.l b h 5 I w.w.] v V m b L l l m 2 6 R E [ n n L l c ",
"a t Z a y w.3.,.a q Z s a w.u.,.a q Y #.$.q.X.D * O h s s l O * y q E u.s.' q a i i b - - z t a <.3.e.a s l O ; ,.p.8.* * n y a ",
"a t A s a w.p.3.a t Z s a w.p.<.a q Y $.$.q.o.o.* O h s s l O * y q E x.x.' 0 y i 4 b - - z t a 3.p.a.a d l O * ,.p.8.$ * z y a ",
"l 6 G l l I B B N m Q B B 6.~ ~ U A 6.) ] 6.B K c p L b b I m N V n _ ' ' f.Y ( N n R z z U V V B B I l l H h l E E 7.U U Q l b ",
"o o 2 O @ 2 . o 1 > b 3 3 x : 1 z s U z n b $ - q 9 z , ; K s z q 8 V q 0 Y } C q 8 V t t V 8 0 o . , % + l 1 1 0 7 Z o.o.B $ ; ",
"$ O 5 * * 5 O $ 1 1 m i i m 1 i z z ! N Z N - , r q n 2 , K z z t 0 V a t ( | S t 0 V a a V q q $ O 5 = % l 1 1 t 0 A o.O.K - , "
};
