/* XPM */
static char *c445242fdfe6474b9f4e8ea51fe397b7XBJOVJcateGfbuhN[] = {
/* columns rows colors chars-per-pixel */
"64 64 174 2 ",
"   c None",
".  c #FE3B27",
"X  c #F03E2B",
"o  c #F03F2B",
"O  c #FA3829",
"+  c #BE732B",
"@  c #BA752C",
"#  c #B17A2C",
"$  c #F4631E",
"%  c #F3641F",
"&  c #F3651F",
"*  c #F3671E",
"=  c #F3671F",
"-  c #F4671F",
";  c #F8631E",
":  c #F3691D",
">  c #F3681E",
",  c #F3691E",
"<  c #F36A1E",
"1  c #F46A1E",
"2  c #F36C1D",
"3  c #F36D1D",
"4  c #F36E1D",
"5  c #F36C1E",
"6  c #F46D1C",
"7  c #F46C1D",
"8  c #F46D1D",
"9  c #F46E1C",
"0  c #F46F1C",
"q  c #F4701B",
"w  c #F4711B",
"e  c #F4721B",
"r  c #F4731B",
"t  c #F5751A",
"y  c #F4741B",
"u  c #F5761A",
"i  c #F5771A",
"p  c #F4701C",
"a  c #F4711C",
"s  c #F47819",
"d  c #F57819",
"f  c #F57A19",
"g  c #F47B19",
"h  c #F57B19",
"j  c #F5781A",
"k  c #F57C18",
"l  c #F57D18",
"z  c #F47E18",
"x  c #F57E18",
"c  c #F57F18",
"v  c #DF4D2B",
"b  c #EF4129",
"n  c #EF402A",
"m  c #EE4729",
"M  c #EC4B28",
"N  c #F04827",
"B  c #F14827",
"V  c #F14927",
"C  c #F04B26",
"Z  c #F04A27",
"A  c #F14A27",
"S  c #F04B27",
"D  c #F14B27",
"F  c #F14F25",
"G  c #F14C26",
"H  c #F14D27",
"J  c #F14E26",
"K  c #F24129",
"L  c #F04229",
"P  c #F04329",
"I  c #F0402A",
"U  c #F0412A",
"Y  c #F0402B",
"T  c #F0422A",
"R  c #F0432A",
"E  c #F04428",
"W  c #F04429",
"Q  c #F04529",
"!  c #F14529",
"~  c #F04628",
"^  c #F14628",
"/  c #F04728",
"(  c #F14728",
")  c #F04629",
"_  c #F14629",
"`  c #F24628",
"'  c #F04828",
"]  c #F14828",
"[  c #F14928",
"{  c #F14A28",
"}  c #F45323",
"|  c #F25723",
" . c #F45423",
".. c #F15025",
"X. c #F15125",
"o. c #F15224",
"O. c #F15424",
"+. c #F15524",
"@. c #F25424",
"#. c #F25524",
"$. c #F25624",
"%. c #F25823",
"&. c #F25923",
"*. c #F25A22",
"=. c #F25B22",
"-. c #F25A23",
";. c #F35F20",
":. c #F25E21",
">. c #F35E21",
",. c #F35F21",
"<. c #F25C22",
"1. c #F35C22",
"2. c #F05E22",
"3. c #C16D2C",
"4. c #F26120",
"5. c #F36120",
"6. c #F36021",
"7. c #F26220",
"8. c #F36220",
"9. c #F36320",
"0. c #F06420",
"q. c #F36420",
"w. c #F36520",
"e. c #7EAD2E",
"r. c #72B72F",
"t. c #70B92F",
"y. c #5CCB30",
"u. c #56D130",
"i. c #67C12F",
"p. c #64C22F",
"a. c #65C22F",
"s. c #64C32F",
"d. c #65C32F",
"f. c #66C22F",
"g. c #62C62F",
"h. c #64C42F",
"j. c #65C42F",
"k. c #68C02F",
"l. c #66C130",
"z. c #64C330",
"x. c #65C330",
"c. c #61C730",
"v. c #64C430",
"b. c #65C430",
"n. c #B0822B",
"m. c #A2922A",
"M. c #F58017",
"N. c #F58117",
"B. c #F58316",
"V. c #F58217",
"C. c #F58317",
"Z. c #F68216",
"A. c #F68316",
"S. c #F78316",
"D. c #F68217",
"F. c #F68317",
"G. c #F68615",
"H. c #F68715",
"J. c #F58416",
"K. c #F58516",
"L. c #F58417",
"P. c #F68416",
"I. c #F68516",
"U. c #F68417",
"Y. c #F68616",
"T. c #F68716",
"R. c #F68815",
"E. c #F68915",
"W. c #F58A15",
"Q. c #F68A14",
"!. c #F68B14",
"~. c #F18D15",
"^. c #F68C14",
"/. c #F58018",
/* pixels */
"                                                                                                                                ",
"                                                                                                                                ",
"                                                                                                                                ",
"                                                                                                                                ",
"                                                                                                                                ",
"                                                                                                                                ",
"                                                                                                                                ",
"                                                                                                                                ",
"                                                                                                                                ",
"                                                                                                                                ",
"                                                                                                      j.                        ",
"                                                                                      s.              j.                        ",
"                                                                                      s.b.            j.                        ",
"                                                                                      s.b.          s.j.s.                      ",
"                                                                                      s.b.j.        s.z.z.                      ",
"                                                                                      s.z.s.      s.s.z.s.                      ",
"                                                                                      j.s.s.    s.s.b.j.j.                      ",
"                                                                                      j.j.s.  s.s.s.b.z.z.                      ",
"                                                                                      j.s.s.b.z.j.s.z.j.                        ",
"                                                                                      j.s.s.z.s.z.s.b.s.                        ",
"                                                                                    s.j.j.s.s.s.b.s.b.s.                        ",
"                                                                                    s.j.z.b.b.b.s.j.z.j.j.  j.          b.      ",
"                                                                                  j.j.j.z.s.s.s.s.z.j.s.z.s.z.s.z.s.s.s.z.s.    ",
"                                                                                s.s.s.b.s.b.s.z.j.z.s.s.z.s.s.z.s.z.z.s.z.j.z.s.",
"                                                      { A A A A A A { (       s.j.s.s.b.s.s.b.s.b.b.s.j.b.j.j.j.b.j.j.b.j.b.b.b.",
"                                                  ( P u Z.c /./.c I.,.O n.u.k.s.j.s.s.b.s.b.s.b.s.s.z.z.z.s.z.s.z.s.            ",
"                                                n ( 6 Z.I.I.I.I.I.I.c  .v # g.j.s.b.s.s.b.b.s.b.s.s.s.                          ",
"                                              A > 2 I.I.Z.Z.Z.Z.Z.Z.I.s ; $ @ z.c.s.s.s.s.s.s.b.s.s.s.j.                        ",
"                                            F = E.I.Z.Z.I.Z.I.Z.Z.I.Z.I.E.Z.,.m.t.y.s.b.b.b.b.j.b.b.j.j.s.                      ",
"                                          A 2 E.Z.I.I.I.Z.I.Z.I.I.Z.I.Z.Z.Z.~.} 3.e.k.s.s.s.s.z.s.z.z.j.s.s.z.s.                ",
"                                        P = E.Z.Z.s s Z.I.Z.I.Z.Z.I.I.Z.Z.Z.I.w.. + r.k.s.s.z.s.z.s.s.s.s.z.s.z.s.              ",
"                                    ( ( P 2 I.I.c { { s I.Z.Z.Z.Z.I.Z.Z.I.Z.Z.E.8.m M               s.z.z.s.z.s.s.s.            ",
"                                    P = c Z.Z.I.Z.q A o.q I.Z.Z.Z.I.Z.I.I.Z.Z.Z.I.1 P                           s.z.s.          ",
"                                ( ( q Z.I.I.Z.Z.I.I.u { ( 6 E.I.I.Z.I.I.Z.Z.I.Z.E.2 P                               s.          ",
"                              ( ( 8.I.I.Z.Z.I.I.Z.Z.I.- ,.,.,.8.Z.I.Z.I.I.Z.Z.Z.I.2 P                                           ",
"                            ( A 8.I.Z.Z.I.Z.I.Z.I.Z.Z.I.E.p { ( Z.I.Z.I.Z.Z.I.Z.I.6 P                                           ",
"                          ( ( > E.Z.Z.I.Z.I.I.I.Z.I.Z.Z.Z.I.q +.Z.I.Z.Z.I.I.Z.Z.E.2 P                                           ",
"                        { P > I.Z.Z.Z.Z.Z.I.I.I.Z.I.Z.Z.Z.I.Z.Z.Z.I.Z.Z.I.Z.Z.I.6 A (                                           ",
"                      P ( p I.E.I.Z.I.I.Z.I.I.I.I.I.I.Z.I.Z.I.I.I.Z.I.Z.Z.Z.E.= { (                                             ",
"                    ( 6 q I.6 | 6 E.Z.Z.I.Z.I.I.I.I.I.I.Z.I.Z.Z.Z.I.Z.I.E.E.8.( (                                               ",
"                  A > I.I.I.6 ( F q I.I.Z.I.Z.I.I.I.I.Z.I.Z.Z.Z.Z.Z.I.c > > A (                                                 ",
"                A ,.E.Z.Z.Z.E.6 A ( q I.I.Z.I.I.Z.Z.I.Z.Z.I.I.I.I.I.c &.P P                                                     ",
"              P &.E.Z.Z.I.I.Z.I.q F { u Z.I.Z.I.Z.Z.Z.I.I.Z.s s u s &.P A                                                       ",
"            { ( 8.I.Z.Z.Z.I.Z.Z.I.s A { s I.Z.Z.Z.I.I.Z.I.> P ( ( (                                                             ",
"          A P > I.Z.Z.Z.Z.Z.I.Z.Z.I.u ( u I.Z.Z.Z.Z.I.8.( { (                                                                   ",
"        ( P > c I.Z.I.I.I.I.Z.I.Z.I.Z.q c Z.Z.I.I.F A { (                                                                       ",
"      ( P w.I.I.Z.I.Z.Z.I.I.Z.I.Z.Z.Z.I.I.E.^.c +.(                                                                             ",
"    ( F > I.I.Z.I.Z.I.Z.Z.Z.Z.Z.I.E.E.E.6 8.w.&.                                                                                ",
"    P &.E.Z.Z.I.I.Z.Z.I.I.I.I.I.s = > > { o o                                                                                   ",
"    P +.I.Z.Z.Z.Z.I.I.Z.s s u c ,.o P n (                                                                                       ",
"  A ( | I.Z.Z.Z.I.Z.I.q ( ( ( ( ( {                                                                                             ",
"( P ,.Z.Z.Z.I.I.E.2 A A (                                                                                                       ",
"( ,.I.E.E.Z.o.o.o.A (                                                                                                           ",
"( +.,.&.&.+.( P                                                                                                                 ",
"( P o P P P (                                                                                                                   ",
"                                                                                                                                ",
"                                                                                                                                ",
"                                                                                                                                ",
"                                                                                                                                ",
"                                                                                                                                ",
"                                                                                                                                ",
"                                                                                                                                ",
"                                                                                                                                ",
"                                                                                                                                "
};
