/* XPM */
static char *_d1c896a84bb43619483794d85a81373S8qvvuaHajcHevtl[] = {
/* columns rows colors chars-per-pixel */
"64 64 147 2 ",
"   c None",
".  c #292127",
"X  c #2D262B",
"o  c #2F282D",
"O  c #30292E",
"+  c #352D33",
"@  c #373036",
"#  c #383137",
"$  c #3C353B",
"%  c #3F383E",
"&  c #40393F",
"*  c #433C43",
"=  c #483F47",
"-  c #483F48",
";  c #474046",
":  c #484147",
">  c #4C444C",
",  c #4E484D",
"<  c #51474F",
"1  c #50494F",
"2  c #504750",
"3  c #544B53",
"4  c #584E57",
"5  c #574D58",
"6  c #594E59",
"7  c #575156",
"8  c #595257",
"9  c #5C535D",
"0  c #5F595E",
"q  c #60595E",
"w  c #5F5460",
"e  c #615662",
"r  c #645A65",
"t  c #685B67",
"y  c #675C68",
"u  c #6A5E6A",
"i  c #676166",
"p  c #686167",
"a  c #6D626D",
"s  c #70626F",
"d  c #70696E",
"f  c #6F6470",
"g  c #716571",
"h  c #756975",
"j  c #786B77",
"k  c #776C78",
"l  c #7B6E7A",
"z  c #777175",
"x  c #797177",
"c  c #7E727D",
"v  c #7E787C",
"b  c #80727F",
"n  c #827B7F",
"m  c #827581",
"M  c #857B84",
"N  c #887B87",
"B  c #8A7D89",
"V  c #878185",
"C  c #898187",
"Z  c #8D838C",
"A  c #8F888D",
"S  c #90858F",
"D  c #928B8F",
"F  c #928691",
"G  c #958B93",
"H  c #988E97",
"J  c #9A8E99",
"K  c #9A9397",
"L  c #9D949B",
"P  c #9F989C",
"I  c #A1979F",
"U  c #A19A9E",
"Y  c #A297A0",
"T  c #A79DA5",
"R  c #A79EA5",
"E  c #A79EA6",
"W  c #A49AA2",
"Q  c #A89DA6",
"!  c #A89EA6",
"~  c #A89FA6",
"^  c #A99FA6",
"/  c #A99FA7",
"(  c #A89EA6",
")  c #A99FA8",
"_  c #A7A1A4",
"`  c #A7A1A5",
"'  c #A7A1A5",
"]  c #A9A0A7",
"[  c #A9A1A7",
"{  c #AAA1A8",
"}  c #ABA1A9",
"|  c #ACA2A9",
" . c #AEA5AC",
".. c #AFA7AD",
"X. c #ACA3AA",
"o. c #AFA8AC",
"O. c #B0A6AE",
"+. c #B1A7AE",
"@. c #B0A7AD",
"#. c #B1AAAE",
"$. c #B1ABAE",
"%. c #B1AAAF",
"&. c #B4ABB2",
"*. c #B3ADB0",
"=. c #B5ACB3",
"-. c #B5AEB2",
";. c #B5AFB2",
":. c #B4ACB2",
">. c #B8AFB6",
",. c #B6B0B4",
"<. c #B7B0B4",
"1. c #B8B0B5",
"2. c #B8B1B5",
"3. c #B8B2B5",
"4. c #B9B3B7",
"5. c #BAB4B7",
"6. c #B9B2B6",
"7. c #BBB3B8",
"8. c #BBB6B8",
"9. c #BDB7B9",
"0. c #BDB7BA",
"q. c #BCB5B9",
"w. c #BEB8BB",
"e. c #BEB9BB",
"r. c #C0BABD",
"t. c #C1BBBD",
"y. c #C1BBBE",
"u. c #C1BCBF",
"i. c #C2BCBE",
"p. c #C2BCBF",
"a. c #C1BBBE",
"s. c #C4BFC1",
"d. c #C5BFC1",
"f. c #C5BEC2",
"g. c #C5BFC2",
"h. c #C4BEC1",
"j. c #C7C1C4",
"k. c #C6C0C3",
"l. c #C9C3C6",
"z. c #CBC5C7",
"x. c #C9C3C6",
"c. c #CCC6C8",
"v. c #CDC7C9",
"b. c #CCC6C9",
"n. c #CEC8CB",
"m. c #CFC9CC",
"M. c #D2CBCE",
/* pixels */
"                                                        + # # # # # @ %                                                         ",
"                                                      a U M M M M C D * #                                                       ",
"                                                    O y O.T ^ ^ ^ O.w.: # %                                                     ",
"                                                  $ : p B W W W U { ,.* # %                                                     ",
"                                                  + A 1.L W W W W | 1.: # % %                                                   ",
"                                                % 6 r a j M W T W | q.* # % %                                                   ",
"                                                % 9 9 9 y m m c G W S L 9 # %                                                   ",
"                                                % 9 t y y k f y N W S x.y + &                                                   ",
"                                                * 9 a g g y g h Z ^ ^ p.v * $                                                   ",
"                                              * e w y f a e y G T W W 1.n.v X                                                   ",
"                                              * e e e y g g a F T W W W h.n + &                                                 ",
"                                            # % e e 9 y a t a H ] W ^ I :.a . &                                                 ",
"                                          # : e e e w y a e t c J W F W T G a # %                                               ",
"                                          + 9 N w w 9 y a e e e M L m W I 7.*.* %                                               ",
"                                        % # 8 b w w e e e e a y w a W W W I ] *.* $ % %                                         ",
"                                        % + 4 m w w e e e e a a a a x B W { T &.W %.p . *                                       ",
"                                        $ 3 y a e w e e e e t a g g f 9 4 N H r h.c._ d + %                                     ",
"                                        + a k 9 e e e e e e 9 y g a 9 # > Z W r C %.l.:.r % #                                   ",
"                                      % % a j 6 9 w e e e e w y g t $ * U j.a.a.; A 9.p.w.2 &                                   ",
"                                      % j N t # & 9 e e e e e e e 6 ; :. .Y { 9.k.8 v c.5.p.0                                   ",
"                                      % l 9 a o._ * 2 t w e w e 2 $ # 1. .W T { k.0 4 H a.h.8 + &                               ",
"                                    $ # c - a n.L D e 2 e e w t > * Z w. .W W W h.q > m %.a.U 9 +                               ",
"                                    & 4 l a M T l &.r * t w e 9 * 2 x.1.{ W W W h.q > m W %.M.v X                               ",
"                                    * c m :.X.j m m 2 = e w e = $ e 9.I L I I W h.q > m W I a.M % %                             ",
"                                & % % * ] k.W l m M 4 # * w t % z l.1.N m m N T h.0 > m W W ,.h.K #                             ",
"                            % + + + O + $.] k r t c b 8 * r * M  .{ { m b b N T h.e > m ^ W W 9.P #                             ",
"                          $ + x Z C Z A L B g 9 y j c 9 @ > + Z *.L Z b m c N W h.8 > c N T I 1.P #                             ",
"                          * p *.h.q.O.L b m j e g a g e > $ # c ) L b Z N N G T a.M 9 e f S L 1.P #                             ",
"                          : p.W L F s @ j m g e f g a k k % @ M { H m W B S T W 1.M.v # j a F q.L #                             ",
"                      % $ : I N m M k * k g 9 e a a a f y % + M J l m m m b N W W h.v % h a F 7.P #                             ",
"                      + e ] N m b m j & j a 9 e y g j a 6 * C Z m b m m c F L B L h.v % h a F q.L #                             ",
"                      X p x.b m b M l & k g e w > 2 2 8 8 $ L F c m m m c B Z m L h.v % h a F 7.P #                             ",
"                    # 2 M ^ m b m k e % g r 2 2 $ # @ * 6 e I N j m m m m b c m L h.v % h a F q.P #                             ",
"                    O Z :.j m m m e + % 6 - # $ % % % # > ^ W j s m c c c m m m L h.v % h a F q.L #                             ",
"                    + x L c b N 8 $ % % % % % % % % % # > I y j m c f g a k m m L h.v % h a F 7.P #                             ",
"                  % + x Y c N < 2 j G Z * # % $ % % # e L T y t s h g g g g j m b 1.v $ j H L 1.L X                             ",
"                  % = j S k 9 2 j L ^ W t * $ % % & o a  .c t e t y y y a g g m S a.v $ j W W :.:.M *                           ",
"                  % 6 h M k # j L T W W Z 4 @ % % # > j B 9 w e e e e e a g j S H 1.j # k W W %.x.w.*                           ",
"                  % 5 g b g : H T W W W | a % % % % Z Z 6 e e w e t t e a a k I l Y j : g L I %.a.:.*                           ",
"                  % 6 t 2 : I W W W W W W { x + * G ] N 9 e e e e e t e e y j m c | h.L % a H W  .,.*                           ",
"                & 6 9 t 2 * W W T L N B L | x + * W Z t 9 e e w e e e e e y g j L W ,.a.P > t S %.<.*                           ",
"                & e t 5 2 p W T J N c m L  .j o & r 2 2 t e w w e t u t e y g g Z L { 1.q.$ 6 Z %.<.*                           ",
"                & e 6 % 4 J W ^ Z l m m F T C 4 % * : > 2 5 w w e e u e e y a g l S L { 5.d 8 m &.<.*                           ",
"                & 9 * + e { W W Z b m c l F ^ L & g c e * * 6 w e e w t t e t g b l F X.9.c.8 p 1.<.*                           ",
"                % % 9 * 9 { W N b m l e c j N H & H W W L a * 5 e e e a t e t t f j G T W h.7 a >.:.*                           ",
"                & 9 > + 9 T N c G H c k y e p m G 3 N  .T H * $ 3 e e g g y t s f l N Z T X.4 4 Z L *                           ",
"                % > % > c W b c B B c m a e t h N % y B B W e * > t e t t y u y y g k m F T 4 > N X.*                           ",
"                % $ @ y J Y m m c c m c h t t h h & 8 a j W N > * 9 w w 9 y a e e y c N b T 3 > Z 1.&                           ",
"                % & + x { L m c m m c f f t r k W > 8 f k I ^ e # * e e e e e e t t C L m T 9 2 B <.: %                         ",
"                % % O x I c m r g m b f r e w y T ^ 9 > j h W M 2 * e w e e e e e e a j m W { y 9 c.5.8                         ",
"              % % % h L L c m j c c h g e w w r j N 2 > j g x J p X > e e e e e a t y g k B  .p o i m.q                         ",
"            % % % $ G Y B b m m c j a y e e e w 9 f : > a y y N M y # : 9 e w e y t t y y j N c a p v : +                       ",
"              % % : H N g m m c j a y w w e e w e g > * 9 w a r N H 1 , 5 9 w 6 6 9 e t e a t B  .T : $ : 1 $                   ",
"              $ * c T p 2 N b g f y w e e e e w e g 3 $ * e e e 9 y W ^ 9 > 9 % $ 5 y a e e a a x W | : V ] +                   ",
"              $ * c I Z k m m g g a e e e e e w e y H j # e e e w e j a L h % e % 4 e r a e a a c ^ ^ : M W @                   ",
"              $ * k L F c m j g a 4 * e * 5 e w e e c y % t e e w w t a N 8 O : # * 4 y y a a f h M T : M U . %                 ",
"            % $ * Z W F m c f f y 5 > e 2 6 e w e 9 a 5 + 2 w e e e e y u h p $ 2 & * > 2 f g g a g ^ : n q.h *                 ",
"              * 9 T W m j m g g t e t e 9 w e e e 9 g 3 . # 5 9 e e e w t Z G $ 9 * % % % y f g a g L : c M.9.&                 ",
"              9 | L B 4 2 m a a t w e e & 2 e w 9 9 a 2 . + # 2 e e e w a g t * % # 2 8 % 9 a g f f g % n c.%.:                 ",
"              9 I * j f 9 t e e e e e e e e r 9 & % % % # O $ $ > e w w a f k H * $ % % % 9 a g f f h $ v x.9.5.8               ",
"              4 ^ 5 t y 5 : e > * : * - : - : * % # 4 4 # O # > w t e 9 e y c L * % % $ % e 2 9 g a g 6 L M.9.h.8               ",
"            o > N t e 6 * % > % $ $ $ $ $ $ $ $ % $ 2 : + O $ : 2 > 2 y r y m I % + # % % 2 $ 4 j g g h j G k.k.8               ",
"              * 5 5 6 * + # @ # # # # $ % % $ # # # @ O X O # # @ + # e 9 9 a B + . + % $ $ # 2 y t t p * > | _ 3               ",
"              + % o X o o X O o o o o o # % @ X o o o O o o X o O O O X # + X X O X + % % % % % $ % % $ % % $ $ %               "
};
