/* XPM */
static char *_444318003cb4b5ae101e7c93254ebd4QFEA9EmePZRQawvb[] = {
/* columns rows colors chars-per-pixel */
"64 64 150 2 ",
"   c None",
".  c #0E0E0E",
"X  c #141414",
"o  c gray11",
"O  c gray20",
"+  c #3C3C3C",
"@  c #DE6F23",
"#  c #E17427",
"$  c #CB7B5D",
"%  c #CC7D60",
"&  c #2F883C",
"*  c #328A3F",
"=  c #2E9833",
"-  c #379936",
";  c #3A9B39",
":  c #5C9839",
">  c #3D9544",
",  c #3D9049",
"<  c #439F42",
"1  c #40934B",
"2  c #479B4E",
"3  c #499754",
"4  c #47A146",
"5  c #48A347",
"6  c #4CA34B",
"7  c #4FA954",
"8  c #52A651",
"9  c #74A451",
"0  c #F5842C",
"q  c #EA8133",
"w  c #F68833",
"e  c #F68D3D",
"r  c #DF8343",
"t  c #E28646",
"y  c #E98C47",
"u  c #EB904E",
"i  c #F79244",
"p  c #FA9140",
"a  c #F6964C",
"s  c #F8964B",
"d  c #F5984F",
"f  c #F9984F",
"g  c #F59B55",
"h  c #F69E5A",
"j  c #CE8367",
"k  c #CF8569",
"l  c #D0876B",
"z  c #D1886E",
"x  c #D28D74",
"c  c #D4937B",
"v  c #EBA673",
"b  c #838383",
"n  c gray54",
"m  c #939393",
"M  c #B1ADAF",
"N  c #BDB9BB",
"B  c #D79B85",
"V  c #DBA692",
"C  c #DFAB97",
"Z  c #E4B38F",
"A  c #E4B593",
"S  c #EAB995",
"D  c #EEBF9A",
"F  c #DBB4A5",
"G  c #DCB7A9",
"H  c #DCBAAE",
"J  c #DFBFB4",
"K  c #E0B4A3",
"L  c #E2BAAB",
"P  c #E5BEB0",
"I  c #8CC38A",
"U  c #B2C38F",
"Y  c #A1CFA1",
"T  c #A5D0A5",
"R  c #A3D4A9",
"E  c #F0C19C",
"W  c #FAC69D",
"Q  c #EFC4A2",
"!  c #EFC7A8",
"~  c #EFCAAD",
"^  c #F9CAA6",
"/  c #FACDAA",
"(  c #E6C2B5",
")  c #E8C3B6",
"_  c #E8C6B9",
"`  c #DBD9DA",
"'  c #E3CCC4",
"]  c #EACEC3",
"[  c #E3D3CC",
"{  c #EED4CA",
"}  c #F0DCCC",
"|  c #E0DFDF",
" . c #F0D9D0",
".. c #C8E2C6",
"X. c #CEE5CC",
"o. c #D9EAD7",
"O. c #E9E3DE",
"+. c #F2E4D0",
"@. c #FCE5D4",
"#. c #F8E8D7",
"$. c #DFE5E1",
"%. c #E3E4E2",
"&. c #E9E5E3",
"*. c #E6E9E7",
"=. c #E9E8E7",
"-. c #E9E7E8",
";. c #E7E9E9",
":. c #EAEBEB",
">. c #F6EAE6",
",. c #FFEDE3",
"<. c #F2EFEE",
"1. c #E6F1E5",
"2. c #F2F0EE",
"3. c #FAF2ED",
"4. c #E9EEF1",
"5. c #EAF1F4",
"6. c #EAF3F9",
"7. c #E9FAFF",
"8. c #F5F5F5",
"9. c #F2F3F2",
"0. c #FAF7F5",
"q. c #FCF7F6",
"w. c #FDF7F3",
"e. c #F3F9F3",
"r. c #FBF8F7",
"t. c #FCF8F7",
"y. c #FFF8F3",
"u. c #F2F6F8",
"i. c #F6FBFD",
"p. c gray98",
"a. c #FBFBFB",
"s. c #FBFAFA",
"d. c #F9F9F9",
"f. c #FFFBF9",
"g. c #FDFBFA",
"h. c #FDF9F8",
"j. c #FEFCFB",
"k. c gray99",
"l. c #FDFDFD",
"z. c #FDFDFC",
"x. c #FEFCFC",
"c. c #FEFDFD",
"v. c #FEFDFC",
"b. c #FEFEFD",
"n. c #FFFEFD",
"m. c #FDFFFF",
"M. c #FEFEFE",
"N. c white",
"B. c #FFFFFE",
"V. c #FEFEFE",
/* pixels */
"                                                B.B.B.B.B.B.                                                                    ",
"                                                B.B.B.B.B.                                                                      ",
"                                                { ) _ _ )  .                                                                    ",
"                                            B.B.L % l z $ ) B.B.                                                                ",
"                                            B.B.L z c c z _ B.B.                                                                ",
"                                            B.B.L l c c k _ B.B.      B.B.B.B.B.B.B.B.B.B.                                      ",
"                                            B.B.L l c c k _ B.B.    B.B.B.B.B.B.B.B.B.B.B.                                      ",
"                                            8.i.L z c c k _ B.B.      B.B.B.B.B.B.B.B.B.B.                                      ",
"                                            -.4.F z c c k _ B.B.    B.B.B.B.B.B.B.B.B.B.B.                                      ",
"                                            -.5.F l x c k _ B.B.    B.B.B.B.B.B.B.B.B.B.B.                                      ",
"                                                [ [ ' c k _ B.B.    B.B.B.B.B.B.B.B.B.B.B.                                      ",
"                                                :.5.-.c k _ B.B.    B.B.B.B.B.B.B.B.B.B.B.                                      ",
"                                                :.:.&.c k _ B.B.    a.a.a.>.>.3.a.a.B.B.B.                                      ",
"                                                B.B.0.c k _ B.B.    :.:.&.c z G 5.-.                                            ",
"                                                B.B.0.c k _ B.B.    -.-.%.c l F 4.*.                                            ",
"                                                      c l ( i.9.    8.8.<.c l L i.8.                                            ",
"                                                      x l H 5.-.      B.g.c j P B.B.                                            ",
"                                                      c x J 5.-.    B.B.r.B x ) B.B.                                            ",
"                                                B.B.B.t.q.g.B.B.B.B.B.B.B.t.q.g.B.B.                                            ",
"                                                B.B.B.B.B.B.B.B.B.B.B.B.B.B.B.B.B.B.                                            ",
"                                                B.B.B.B.B.B.B.B.B.B.B.B.B.B.B.B.B.B.B.B.                                        ",
"                                            B.B.B.B.B.B.B.B.B.B.B.B.B.B.B.B.B.B.B.B.B.B.B.                                      ",
"                                            B.B.B.B.B.9.9.a.B.B.B.B.B.B.B.9.9.8.B.B.B.B.B.                                      ",
"                                            B.B.B.B.9.+ o m B.a.B.B.B.B.9.+ o n B.B.B.B.B.                                      ",
"                                            B.B.B.B.:.O . m B.a.B.B.B.B.9.O . b B.B.B.B.B.                                      ",
"                                            B.B.B.B.:.O X m B.a.B.B.B.B.9.O X b B.B.B.B.B.                                      ",
"                                            B.B.B.B.:.O . m B.a.B.B.B.B.9.O X b B.B.B.B.B.                                      ",
"                                            B.B.B.B.:.+ X m B.a.j.g.B.B.9.+ o b B.B.B.B.B.                                      ",
"                                            B.B.B.B.B.| ` :.B.0.V c ] B.a.%.` -.B.B.B.B.B.                                      ",
"                                            B.B.B.B.B.B.B.B.B.g.x $ ) B.B.B.B.B.B.B.B.B.B.                                      ",
"                                            B.B.B.B.B.B.B.9.-.&.K C ' :.-.a.B.B.B.B.B.B.B.                                      ",
"                                            B.B.B.B.B.B.B.` M N a.B.` M N a.B.B.B.B.B.B.B.                                      ",
"                                            B.B.B.B.B.B.B.` M N a.B.` M N a.B.B.B.B.B.B.B.                                      ",
"                                                B.B.B.B.B.9.%.-.B.B.9.%.-.B.B.B.B.B.                                            ",
"                                                B.B.B.B.B.B.B.B.B.B.B.B.B.B.B.B.B.B.                                            ",
"                                                B.B.B.B.B.B.B.B.B.B.B.B.B.B.B.B.B.B.                                            ",
"                                                      B.B.B.B.B.B.j.B.B.B.B.B.B.                                                ",
"                                                      B.B.B.B.B.B.B.B.B.B.B.B.B.                                                ",
"                                                  B.B.B.B.B.B.g./ W @.B.B.B.B.B.  B.                                            ",
"                                                B.B.B.B.B.B.B.y.a 0 W B.j.B.B.B.B.B.                                            ",
"                                                B.B.B.B.B.B.B.w.h e ^ B.g.B.B.B.B.B.                                            ",
"                                                :.:.:.:.:.-.:.&.t # A 6.-.:.:.:.:.:.                                            ",
"                                                ;.-.-.-.;.-.:.&.r @ Z 6.=.-.-.-.-.;.                                            ",
"                                                8.8.8.8.8.:.:.&.u q S 6.-.9.8.8.8.8.                                            ",
"                                                B.B.B.B.B.8.-.&.h p E 6.-.B.B.B.B.B.                                            ",
"                                                B.B.B.B.B.9.:.&.g e D 6.-.a.B.B.B.B.                                            ",
"                                                :.:.:.:.:.-.-.O.t # Z 6.&.-.:.:.:.:.                                            ",
"                                                ;.-.-.-.-.:.6.-.r @ A 7.4.-.-.-.-.-.                                            ",
"                                                8.9.9.9.u.} Q Q y q v ~ ! 2.9.9.9.9.a.                                          ",
"                                            B.B.B.B.B.B.B.W w i s f s e a y.B.B.B.B.B.B.B.                                      ",
"                                            B.B.B.B.B.j.B.^ i g a a d a h w.B.B.B.B.B.B.B.                                      ",
"                                            B.B.B.B.B.B.B.3.@.+.9 : U ,.#.B.B.B.B.B.B.B.B.                                      ",
"                                            B.B.B.B.B.B.B.B.B.i.7 = R B.B.B.B.B.B.B.B.B.B.                                      ",
"                                            a.a.a.a.a.B.B.1.X...8 ; I o.X.a.B.B.B.B.a.a.a.                                      ",
"                                            -.-.-.-.-.a.B.Y - 6 4 4 4 < 6 e.B.B.B.B.:.-.-.                                      ",
"                                            -.-.-.-.-.a.B.Y ; 6 5 5 5 4 8 e.B.B.B.B.:.-.-.                                      ",
"                                            -.-.:.-.-.a.B.T ; 6 > > > > 2 e.B.a.9.9.:.-.-.                                      ",
"                                            -.-.:.-.:.a.B.T - 4 * * * & , e.B.8.;.-.-.-.-.                                      ",
"                                            -.-.:.-.:.a.B.T 4 8 1 , 1 , 3 e.B.8.-.-.-.-.-.                                      ",
"                                                :.-.-.:.:.*.%.%.$.$.$.$.%.:.:.:.-.-.                                            ",
"                                                :.-.:.-.-.:.:.:.:.:.:.:.:.-.-.-.-.-.                                            ",
"                                                -.:.-.:.:.-.-.-.-.  -.-.-.-.:.:.-.-.:.:.                                        ",
"                                            -.-.:.-.:.:.:.:.-.:.      -.-.:.:.:.-.:.:.-.:.                                      ",
"                                            -.-.-.:.-.:.:.:.-.:.    -.-.:.:.:.-.:.-.:.-.:.                                      "
};
