/* XPM */
static char *_0d29d87935a450495671b8dc2eeebe38pB1UZPxxQd9dxXG[] = {
/* columns rows colors chars-per-pixel */
"64 64 41 1 ",
"  c #5B5B5B",
". c #5D5D5D",
"X c #626262",
"o c #646464",
"O c #6A6A6A",
"+ c #6C6C6C",
"@ c #727272",
"# c #7B7B7B",
"$ c #7E7E7E",
"% c #808080",
"& c gray53",
"* c #898989",
"= c gray56",
"- c #939393",
"; c #959595",
": c #9B9B9B",
"> c gray62",
", c gray64",
"< c #A5A5A5",
"1 c #A9A9A9",
"2 c gray68",
"3 c gray70",
"4 c #B4B4B4",
"5 c #B9B9B9",
"6 c gray75",
"7 c #C0C0C0",
"8 c #C6C6C6",
"9 c #CACACA",
"0 c gray81",
"q c LightGray",
"w c #D7D7D7",
"e c #DADADA",
"r c gray87",
"t c gray88",
"y c #E6E6E6",
"u c gray92",
"i c #EEEEEE",
"p c gray95",
"a c #F4F4F4",
"s c #F8F8F8",
"d c #FEFEFE",
/* pixels */
"ddaeepddewreereeer9=*wdsrwydduweeereerew-&4dduwrddaeepddrerer3*=",
"ddaeepddeereereeer9=&wdsrwudduweeereerew-&4dduwrddaeepddeeret3&=",
"ddawwuspewrrrtrrwe9:;edsewtaaywerrtrrrww>-5saywepaiwwusarrrwr4;:",
"ddi77wew760reree775-*wds860ee067eerer066;*2rr067wew77weeeew682=-",
"ddp66wre760rerre776-*edd760rrq67eerrrq77;*2ee067ere76wrerre782*-",
"uuywww00wqerre00554:;0iuwqw00wwwrrr0q855:-5aptqw00wwwrrr000562;:",
"wweer056eerer0561<1=*7ewerw66wreeew675<<=&4ddiee659eeree66612,*=",
"rrree067eeree066222-*7reeew77weeeew67511-&4dduww760eerew76723<*=",
"ddi77weeeew78612675-=7rw760eeree77722666-*2rrq67werer067215771*=",
"ddp66qeeeew675<1675=*7rw659eeree76711676-&1re056eerer0661<4781&=",
"aau00errwww77745775:;8tr09wrrrww77755776>;3trw90rrrwe067547782;:",
"ewreeree76722677212-=7reeerer06621578511-*2rereeeew6751277722<=-",
"trttttrr88832787322;-8yrrrtrtq7832688622;=3trtrrrte8862378823<=-",
"43544533112<<211,,,&&14343544411<,2222,,&%:44534334122,<112<<<;:",
"&&-**-&&*&;**;&****XX&&&&&-**;&**&;**;*&o.#**-&&&&-==;&**&;==;**",
"-->;;>--==:;;>-;--;@@----->;;:==;->;;>--@+&;;>---->-->-;;->;;>-;",
"wwewwewq-&4dassaeqtasyqwwwewe3&;pssasyqeasiwwewwwe9=*qdaaspwwisa",
"eereerrw-&4dddddrwuddiweeeret4&;sddddiwrddseereeer9=&eddddseeadd",
"rrtrrrwq>-5sapiirryiiyrrrrrwe4->sdsipyrriiurrtrrwe9:;wspiiurruii",
"eerer066;*2rr067eew76wreeew682*;adi66wre760reree775-=7rw760er067",
"eerrrq77;*2ee067ere77weerre782*;sdp67wre760rerre776-=7rw760rr067",
"rrr0q855:-5aptqw00wwwrre000562;>yiywww00wqerre00554:;qaiwqwq0www",
"eew675<<=&4ddiee659rerew66612,&-qweer056eerer0561<1=&eddrew66wre",
"eew67511-&4dduww760eerew76723<*-erree067weree066222-*wdseew77wee",
"77722666-*2rrq67werer067215771*;adi77qeeeew78612675-*8te760eeree",
"66611676-&1re056eerer0661<4781&-sdi66qeeeew675<1675=*7rw659eeree",
"77755776>;3trw90rrrwe067547782;>psu00errwww77745775:;8tr09wrrrww",
"21578511-*2rereeeew6751277722<*;wereeree76722677212-=7reeerer067",
"22588622;=3trtrrrte8862378823<=;rtttttrr88832787322;-8yrrrtrtq78",
"<,2222,,&%:44534334122,<112<<:%&33544533112<<211,,,&%14343544411",
"*&;**;&&o.#**-&&&&-==;&**&;*=$ o&&-**-&&*&;**;&****oX&&&&&-**;&*",
";->;;>--@O&;;>---->-->-;-->;:*+@-->;;>--==:;;>----;@@-;--->;;:==",
"sspwwisawqewwewwwe9=*qdaeqtssaaawwewwewq-&4dsyqwwwewwewwwwewe3*=",
"ddaeeaddrereereeer9=&eddreudddddrereerrw-&4ddiereerrrreeeeret4&=",
"ddawwuapewerrtrrwe9:;wspewtaapiirrtrrrwq>-5saywwrrrwwrrrrrrwe4;:",
"ddi77wew760reree775-=7rw760ee067eerer066;*2re067eew77weeeew682=-",
"ddp66wre760rerre776-=7rw760rrq67eerrrq77;*2rr067ere76weerre782*-",
"uuywww00wqerre00554:;qaiwqwq0wwwrrr0q855:-3treqw00wwwrrr000562;:",
"wweer056eerer0561<1=&eddrew66wreeew675<<=&1reree659reree66612,*=",
"rrree067eeree066222-*wdseew77weeeew67511-*2rerew760eerew76723<*=",
"ddi77weeeew78612675-*8te760eeree77722666-*2req67werer067215771*=",
"ddp66qeeeew675<1675=*7rw659eeree76711676-&1re056eerer0661<4781&=",
"aau00errwww77745775:;8tr09wrrrww77755776>;3trw90rrrwe067547782;:",
"ewreeree76722677212-=7reeerer06621578511-*2rereeeew6751277722<=-",
"trttttrr88832787322;-8yrrrtrtq7832688622;=3trtrrrre8862378823<=-",
"43544533112<<211<,,&%14343544411<,2222,,&%:44534334122,<112<<<;:",
"&&-**-&&*&;**;&****oX&&&&&-**;&**&;**;*&o.#**-&&&&-==;&**&;**;**",
"-->;;>--==:;;>--;;;@@-;--->;;:==;->;;>--@+&;;>---->-->-;-->;;>--",
"wwewwewq-&4dsyqeasiqwewwwwewe3&;pssasyqeaaiwwewwwe9=*qdaeqtssyqw",
"eereerrw-&4ddierddserreeeeret4&;dddddiwrddseereeer9=&wddreuddier",
"rrtrrrwq>-6dduqepaiwwrrrrrrwe4->papipyrriiurrtrrwe9:;edsewtaayww",
"eerer066;*4ddr57wew77weeeew682*;wew76wre760reree775-*wds860ee067",
"eerrrq77;*4ddr57erw76weerre782*;wew76wre760rerre776-*edd760rr067",
"rrr0q855:-4iirqw00wwwrrr000562;>iauwww00wqerre00554:;0iuwqwq0www",
"eew675<<=&1ewree659reree66612,&-sdaer056eerer0561<1=*7ewerw66wre",
"eew67511-*2trrww760eerew76723<*;adpwe067eeree066222-*8teeww77wee",
"77722666-&4ddr68werer067215771*-wre77weeeew78612675-*wda860eeree",
"66611676-&4dde57eerer0661<4781&-wew66qeeeew675<1675=&wds759eeree",
"77755776>-5sar90rrrwe067547782;>err00errwww77745775:;wsp09wrrrww",
"21578511-*2eereeeew6751277722<*;wereeree76722677212-=7rweerer067",
"22588622-*2tttrrrte8862378823<=;etttttrr88832787322;-8yrrrtrtq78",
",,2222,,:;144533334122,<112<<:$&33544533112<<211,,,&%14333544411",
"**;==;**=*;**-&**&;=*;***&;==%.o&&-**-&**&;==;&***=oo&*&*&-**;&*",
"==:--:====:--:====:--:====:--&o+==:--:====:--:====-OO=-===:--:=="
};
